<?xml version="1.0" encoding="UTF-8"?>
<svg version="1.1" xmlns="http://www.w3.org/2000/svg" width="30" height="32">
<path d="M0 0 C9.9 0 19.8 0 30 0 C30 10.56 30 21.12 30 32 C20.1 32 10.2 32 0 32 C0 21.44 0 10.88 0 0 Z " fill="#1C1816" transform="translate(0,0)"/>
<path d="M0 0 C0 0.721875 0 1.44375 0 2.1875 C1.21891265 5.61569182 1.9148469 5.60946332 5.0625 7.125 C7.90112178 8.73389393 8.82497059 9.41480065 9.7734375 12.5859375 C9.99713234 16.55918403 10.10836436 19.66939291 7.48046875 22.82421875 C5.01588891 24.63503636 3.10897846 26 0 26 C-0.25 23.6875 -0.25 23.6875 0 21 C1.33333333 20 2.66666667 19 4 18 C4.33425735 15.37374861 4.33425735 15.37374861 4 13 C2.68 12.34 1.36 11.68 0 11 C0 9.35 0 7.7 0 6 C-1.32 6.33 -2.64 6.66 -4 7 C-4 9.31 -4 11.62 -4 14 C-2.68 14.33 -1.36 14.66 0 15 C0 16.65 0 18.3 0 20 C-3.40312738 18.94124926 -6.01353231 17.99097846 -9 16 C-9.89065603 12.23743269 -9.87821353 8.7622234 -9 5 C-6.77383554 2.6748949 -3.40756148 0 0 0 Z " fill="#EC7020" transform="translate(15,2)"/>
<path d="M0 0 C2.9719385 1.12451727 5.33440687 2.22293791 8 4 C8.8318006 7.74310268 8.77788875 11.25100836 8 15 C6.02282948 17.41997434 3.88256933 18.81958134 1 20 C0.34 20 -0.32 20 -1 20 C-1.25 17.6875 -1.25 17.6875 -1 15 C0.33333333 14 1.66666667 13 3 12 C3.58350505 9.45709375 3.58350505 9.45709375 3 7 C2.01 6.34 1.02 5.68 0 5 C-0.1875 2.375 -0.1875 2.375 0 0 Z " fill="#F38D4B" transform="translate(16,8)"/>
<path d="M0 0 C0.66 0 1.32 0 2 0 C2.25 2.3125 2.25 2.3125 2 5 C0 6.8125 0 6.8125 -2 8 C-2.66 7.67 -3.32 7.34 -4 7 C-3.67 5.68 -3.34 4.36 -3 3 C-2.34 3 -1.68 3 -1 3 C-0.67 2.01 -0.34 1.02 0 0 Z " fill="#302118" transform="translate(18,15)"/>
</svg>
